<?xml version="1.0" encoding="utf-8"?>
<!-- Generator: Adobe Illustrator 15.0.0, SVG Export Plug-In . SVG Version: 6.00 Build 0)  -->
<!DOCTYPE svg PUBLIC "-//W3C//DTD SVG 1.1//EN" "http://www.w3.org/Graphics/SVG/1.1/DTD/svg11.dtd">
<svg version="1.1" id="Layer_2" xmlns="http://www.w3.org/2000/svg" xmlns:xlink="http://www.w3.org/1999/xlink" x="0px" y="0px"
	 width="640px" height="480px" viewBox="0 0 640 480" enable-background="new 0 0 640 480" xml:space="preserve">
<g>
	<g>
		<defs>
			<rect id="SVGID_1_" x="-66" y="510" width="473" height="355"/>
		</defs>
		<defs>
			<rect id="SVGID_2_" x="-164" y="212" width="952" height="714"/>
		</defs>
		<defs>
			<rect id="SVGID_3_" x="-183" y="-460" width="714" height="952"/>
		</defs>
		<clipPath id="SVGID_4_">
			<use xlink:href="#SVGID_1_"  overflow="visible"/>
		</clipPath>
		<clipPath id="SVGID_5_" clip-path="url(#SVGID_4_)">
			<use xlink:href="#SVGID_2_"  overflow="visible"/>
		</clipPath>
		<clipPath id="SVGID_6_" clip-path="url(#SVGID_5_)">
			<use xlink:href="#SVGID_3_"  overflow="visible"/>
		</clipPath>
		<g id="main" clip-path="url(#SVGID_6_)">
			<text transform="matrix(1 0 0 1 -30.6885 620.207)" font-family="'Times-Bold'" font-size="100">Data</text>
			<text transform="matrix(1 0 0 1 13.5752 676.3398)" font-family="'Courier'" font-size="36">{</text>
			<text transform="matrix(1 0 0 1 13.5752 719.54)" font-family="'Courier'" font-size="36" letter-spacing="13"> </text>
			<text transform="matrix(1 0 0 1 49.5752 719.54)" font-family="'Courier'" font-size="36">name: &quot;Pekka&quot;,</text>
			<text transform="matrix(1 0 0 1 13.5752 762.7402)" font-family="'Courier'" font-size="36" letter-spacing="13"> </text>
			<text transform="matrix(1 0 0 1 49.5752 762.7402)" font-family="'Courier'" font-size="36">age: 51</text>
			<text transform="matrix(1 0 0 1 13.5752 805.9395)" font-family="'Courier'" font-size="36">}</text>
			<text transform="matrix(1 0 0 1 -95.4971 436.1895)" font-family="'Times-Bold'" font-size="240">View</text>
			<text transform="matrix(0 -0.7014 1 0 353.8516 232.1504)" font-family="'Times-Roman'" font-size="712.8307">}</text>
		</g>
	</g>
</g>
</svg>
