<?xml version="1.0" encoding="utf-8"?>
<!-- Generator: Adobe Illustrator 15.0.0, SVG Export Plug-In . SVG Version: 6.00 Build 0)  -->
<!DOCTYPE svg PUBLIC "-//W3C//DTD SVG 1.1//EN" "http://www.w3.org/Graphics/SVG/1.1/DTD/svg11.dtd">
<svg version="1.1" id="Layer_2" xmlns="http://www.w3.org/2000/svg" xmlns:xlink="http://www.w3.org/1999/xlink" x="0px" y="0px"
	 width="640px" height="480px" viewBox="0 0 640 480" enable-background="new 0 0 640 480" xml:space="preserve">
<g>
	
		<rect id="slide3" x="2946.395" y="898.844" fill="none" stroke="#000000" stroke-miterlimit="10" width="4223.682" height="3167.764"/>
	<g id="main">
		<g>
			<g enable-background="new    ">
				<path d="M4606.179,2851.881c1.502,0,2.901,0.268,4.196,0.801s2.417,1.334,3.364,2.401c0.946,1.067,1.687,2.401,2.221,4.003
					c0.533,1.601,0.8,3.481,0.8,5.64c0,1.893-0.218,3.64-0.653,5.24c-0.436,1.602-1.094,2.984-1.976,4.148s-1.981,2.08-3.299,2.747
					c-1.317,0.668-2.868,1.001-4.653,1.001h-10.059v-25.981H4606.179z M4605.819,2873.059c0.74,0,1.459-0.133,2.155-0.399
					c0.697-0.268,1.317-0.71,1.861-1.329c0.544-0.618,0.98-1.425,1.307-2.419c0.326-0.995,0.49-2.208,0.49-3.64
					c0-1.31-0.114-2.492-0.343-3.548c-0.229-1.055-0.604-1.958-1.127-2.711c-0.522-0.751-1.214-1.328-2.074-1.729
					s-1.921-0.6-3.184-0.6h-3.657v16.374H4605.819z"/>
				<path d="M4620.449,2861.814c0.479-0.8,1.089-1.442,1.829-1.928c0.739-0.485,1.572-0.831,2.498-1.037
					c0.925-0.206,1.855-0.31,2.792-0.31c0.85,0,1.709,0.067,2.58,0.2c0.87,0.134,1.665,0.395,2.384,0.782
					c0.719,0.389,1.307,0.928,1.764,1.619s0.686,1.607,0.686,2.747v9.789c0,0.85,0.044,1.662,0.131,2.438
					c0.087,0.777,0.239,1.359,0.457,1.747h-4.702c-0.088-0.291-0.158-0.588-0.213-0.892c-0.055-0.303-0.093-0.612-0.114-0.928
					c-0.74,0.85-1.611,1.443-2.612,1.783c-1.002,0.339-2.024,0.509-3.069,0.509c-0.806,0-1.558-0.108-2.254-0.327
					c-0.697-0.219-1.306-0.558-1.828-1.019s-0.931-1.043-1.225-1.747c-0.294-0.703-0.441-1.54-0.441-2.511
					c0-1.067,0.169-1.946,0.506-2.638c0.338-0.691,0.773-1.243,1.307-1.656c0.533-0.412,1.143-0.722,1.829-0.928
					c0.686-0.206,1.376-0.369,2.073-0.491c0.696-0.121,1.383-0.219,2.058-0.291c0.675-0.073,1.273-0.182,1.796-0.328
					c0.522-0.146,0.936-0.357,1.241-0.637c0.305-0.278,0.446-0.685,0.425-1.219c0-0.558-0.082-1.001-0.245-1.328
					s-0.381-0.582-0.653-0.764c-0.272-0.183-0.588-0.304-0.947-0.364s-0.746-0.091-1.159-0.091c-0.914,0-1.633,0.218-2.155,0.654
					c-0.522,0.438-0.827,1.165-0.914,2.184h-4.638C4619.698,2863.622,4619.971,2862.615,4620.449,2861.814z M4629.609,2869.11
					c-0.294,0.109-0.609,0.2-0.947,0.273c-0.337,0.072-0.691,0.134-1.061,0.182c-0.371,0.049-0.741,0.109-1.11,0.183
					c-0.349,0.072-0.691,0.17-1.029,0.291s-0.632,0.285-0.882,0.491s-0.452,0.467-0.604,0.782c-0.152,0.315-0.229,0.716-0.229,1.2
					c0,0.462,0.076,0.85,0.229,1.165c0.151,0.315,0.359,0.563,0.62,0.746c0.262,0.182,0.566,0.309,0.914,0.382
					c0.349,0.073,0.708,0.109,1.078,0.109c0.914,0,1.622-0.17,2.123-0.51c0.5-0.339,0.87-0.746,1.11-1.219
					c0.239-0.474,0.386-0.952,0.44-1.438c0.054-0.485,0.082-0.873,0.082-1.164v-1.929
					C4630.148,2868.851,4629.903,2869.002,4629.609,2869.11z"/>
				<path d="M4647.849,2859.05v3.456h-3.396v9.316c0,0.873,0.131,1.455,0.392,1.746c0.262,0.291,0.784,0.437,1.568,0.437
					c0.261,0,0.511-0.012,0.751-0.036c0.239-0.023,0.468-0.061,0.686-0.109v4.003c-0.392,0.073-0.828,0.121-1.307,0.146
					s-0.946,0.036-1.404,0.036c-0.718,0-1.398-0.055-2.041-0.163c-0.643-0.109-1.208-0.321-1.698-0.637
					c-0.489-0.315-0.876-0.765-1.159-1.347s-0.424-1.347-0.424-2.293v-11.099h-2.809v-3.456h2.809v-5.641h4.637v5.641H4647.849z"/>
				<path d="M4650.689,2861.814c0.479-0.8,1.089-1.442,1.829-1.928c0.739-0.485,1.572-0.831,2.498-1.037
					c0.925-0.206,1.855-0.31,2.792-0.31c0.85,0,1.709,0.067,2.58,0.2c0.87,0.134,1.665,0.395,2.384,0.782
					c0.719,0.389,1.307,0.928,1.764,1.619s0.686,1.607,0.686,2.747v9.789c0,0.85,0.044,1.662,0.131,2.438
					c0.087,0.777,0.239,1.359,0.457,1.747h-4.702c-0.088-0.291-0.158-0.588-0.213-0.892c-0.055-0.303-0.093-0.612-0.114-0.928
					c-0.74,0.85-1.611,1.443-2.612,1.783c-1.002,0.339-2.024,0.509-3.069,0.509c-0.806,0-1.558-0.108-2.254-0.327
					c-0.697-0.219-1.306-0.558-1.828-1.019s-0.931-1.043-1.225-1.747c-0.294-0.703-0.441-1.54-0.441-2.511
					c0-1.067,0.169-1.946,0.506-2.638c0.338-0.691,0.773-1.243,1.307-1.656c0.533-0.412,1.143-0.722,1.829-0.928
					c0.686-0.206,1.376-0.369,2.073-0.491c0.696-0.121,1.383-0.219,2.058-0.291c0.675-0.073,1.273-0.182,1.796-0.328
					c0.522-0.146,0.936-0.357,1.241-0.637c0.305-0.278,0.446-0.685,0.425-1.219c0-0.558-0.082-1.001-0.245-1.328
					s-0.381-0.582-0.653-0.764c-0.272-0.183-0.588-0.304-0.947-0.364s-0.746-0.091-1.159-0.091c-0.914,0-1.633,0.218-2.155,0.654
					c-0.522,0.438-0.827,1.165-0.914,2.184h-4.638C4649.938,2863.622,4650.211,2862.615,4650.689,2861.814z M4659.85,2869.11
					c-0.294,0.109-0.609,0.2-0.947,0.273c-0.337,0.072-0.691,0.134-1.061,0.182c-0.371,0.049-0.741,0.109-1.11,0.183
					c-0.349,0.072-0.691,0.17-1.029,0.291s-0.632,0.285-0.882,0.491s-0.452,0.467-0.604,0.782c-0.152,0.315-0.229,0.716-0.229,1.2
					c0,0.462,0.076,0.85,0.229,1.165c0.151,0.315,0.359,0.563,0.62,0.746c0.262,0.182,0.566,0.309,0.914,0.382
					c0.349,0.073,0.708,0.109,1.078,0.109c0.914,0,1.622-0.17,2.123-0.51c0.5-0.339,0.87-0.746,1.11-1.219
					c0.239-0.474,0.386-0.952,0.44-1.438c0.054-0.485,0.082-0.873,0.082-1.164v-1.929
					C4660.389,2868.851,4660.144,2869.002,4659.85,2869.11z"/>
			</g>
			<g enable-background="new    ">
				<path fill="#FFFFFF" d="M4599.181,2853.862c0.016,0.034,0.037,0.062,0.063,0.084c0.027,0.021,0.059,0.036,0.094,0.048
					c0.036,0.01,0.073,0.015,0.111,0.015c0.026,0,0.054-0.003,0.084-0.007c0.029-0.005,0.058-0.014,0.083-0.027
					c0.026-0.015,0.048-0.033,0.065-0.057c0.018-0.025,0.026-0.056,0.026-0.093c0-0.04-0.013-0.073-0.035-0.098
					s-0.053-0.045-0.09-0.062c-0.036-0.017-0.079-0.031-0.126-0.043c-0.048-0.013-0.095-0.026-0.143-0.042
					c-0.05-0.014-0.098-0.03-0.145-0.051c-0.048-0.021-0.09-0.046-0.127-0.077s-0.066-0.071-0.09-0.119
					c-0.022-0.047-0.034-0.104-0.034-0.173c0-0.075,0.015-0.142,0.044-0.197c0.028-0.056,0.066-0.103,0.113-0.14
					s0.101-0.064,0.16-0.082c0.059-0.019,0.119-0.027,0.178-0.027c0.069,0,0.137,0.009,0.199,0.025
					c0.064,0.018,0.121,0.046,0.17,0.084c0.05,0.039,0.09,0.088,0.117,0.148c0.03,0.06,0.045,0.133,0.045,0.218h-0.282
					c-0.003-0.044-0.011-0.081-0.025-0.11c-0.014-0.028-0.033-0.052-0.057-0.067c-0.023-0.017-0.05-0.028-0.08-0.035
					s-0.063-0.011-0.101-0.011c-0.022,0-0.047,0.003-0.069,0.009c-0.024,0.005-0.045,0.015-0.064,0.028
					c-0.019,0.014-0.035,0.031-0.048,0.052c-0.012,0.021-0.018,0.047-0.018,0.079c0,0.028,0.004,0.052,0.015,0.07
					c0.01,0.018,0.029,0.035,0.059,0.049c0.028,0.016,0.069,0.031,0.121,0.047c0.05,0.014,0.118,0.034,0.2,0.057
					c0.025,0.006,0.06,0.016,0.104,0.03s0.088,0.038,0.131,0.069c0.044,0.031,0.081,0.074,0.112,0.127s0.048,0.121,0.048,0.204
					c0,0.067-0.012,0.13-0.036,0.188c-0.022,0.059-0.058,0.108-0.104,0.151c-0.047,0.041-0.104,0.074-0.173,0.098
					c-0.068,0.022-0.148,0.034-0.238,0.034c-0.073,0-0.144-0.009-0.212-0.029c-0.069-0.021-0.13-0.052-0.183-0.095
					c-0.053-0.042-0.095-0.096-0.125-0.163c-0.031-0.065-0.046-0.144-0.045-0.235h0.282
					C4599.156,2853.785,4599.164,2853.828,4599.181,2853.862z"/>
				<path fill="#FFFFFF" d="M4600.662,2853.157v0.196h-0.193v0.529c0,0.05,0.007,0.083,0.022,0.1
					c0.015,0.017,0.044,0.025,0.089,0.025c0.014,0,0.028-0.002,0.042-0.003s0.027-0.003,0.04-0.006v0.228
					c-0.023,0.004-0.048,0.008-0.074,0.008c-0.027,0.002-0.055,0.002-0.081,0.002c-0.04,0-0.079-0.002-0.116-0.009
					c-0.036-0.006-0.067-0.019-0.096-0.037c-0.027-0.017-0.05-0.042-0.066-0.075c-0.016-0.033-0.023-0.076-0.023-0.131v-0.631h-0.16
					v-0.196h0.16v-0.32h0.264v0.32H4600.662z"/>
				<path fill="#FFFFFF" d="M4600.793,2853.46c0.024-0.069,0.058-0.129,0.1-0.178c0.045-0.049,0.096-0.087,0.156-0.113
					c0.062-0.027,0.129-0.041,0.204-0.041c0.076,0,0.145,0.014,0.206,0.041c0.061,0.026,0.112,0.064,0.156,0.113
					c0.043,0.049,0.076,0.108,0.101,0.178c0.023,0.069,0.035,0.147,0.035,0.233c0,0.085-0.012,0.162-0.035,0.23
					c-0.024,0.069-0.058,0.129-0.101,0.178c-0.044,0.049-0.096,0.086-0.156,0.112c-0.062,0.026-0.13,0.04-0.206,0.04
					c-0.075,0-0.143-0.014-0.204-0.04c-0.061-0.026-0.111-0.063-0.156-0.112c-0.042-0.049-0.075-0.108-0.1-0.178
					c-0.022-0.068-0.035-0.146-0.035-0.23C4600.758,2853.607,4600.771,2853.529,4600.793,2853.46z M4601.033,2853.817
					c0.007,0.041,0.02,0.078,0.037,0.11c0.019,0.031,0.042,0.058,0.071,0.077c0.03,0.02,0.067,0.029,0.111,0.029
					s0.082-0.01,0.112-0.029c0.031-0.02,0.055-0.046,0.073-0.077c0.018-0.032,0.03-0.069,0.038-0.11
					c0.007-0.04,0.011-0.082,0.011-0.124c0-0.044-0.004-0.086-0.011-0.127c-0.008-0.041-0.021-0.078-0.038-0.109
					c-0.019-0.031-0.042-0.058-0.073-0.078c-0.03-0.02-0.068-0.029-0.112-0.029s-0.081,0.01-0.111,0.029
					c-0.029,0.021-0.053,0.047-0.071,0.078c-0.018,0.031-0.03,0.068-0.037,0.109c-0.008,0.041-0.012,0.083-0.012,0.127
					C4601.021,2853.735,4601.025,2853.777,4601.033,2853.817z"/>
				<path fill="#FFFFFF" d="M4602.172,2853.157v0.198h0.004c0.012-0.033,0.028-0.064,0.05-0.092
					c0.021-0.028,0.045-0.053,0.072-0.072s0.057-0.035,0.087-0.047c0.031-0.011,0.063-0.017,0.097-0.017
					c0.018,0,0.037,0.004,0.058,0.011v0.272c-0.012-0.003-0.027-0.005-0.045-0.007c-0.017-0.002-0.033-0.003-0.05-0.003
					c-0.048,0-0.089,0.009-0.122,0.026s-0.061,0.043-0.081,0.074c-0.021,0.03-0.035,0.067-0.044,0.108
					c-0.008,0.041-0.013,0.086-0.013,0.134v0.482h-0.264v-1.069H4602.172z"/>
				<path fill="#FFFFFF" d="M4602.998,2854.545c-0.051,0.037-0.121,0.056-0.211,0.056c-0.028,0-0.055-0.001-0.082-0.003
					c-0.026-0.002-0.053-0.005-0.08-0.007v-0.242c0.024,0.003,0.051,0.005,0.076,0.008s0.053,0.003,0.077,0.002
					c0.036-0.004,0.061-0.019,0.077-0.045c0.018-0.026,0.025-0.056,0.025-0.087c0-0.023-0.004-0.046-0.011-0.066l-0.336-1.003h0.28
					l0.217,0.731h0.004l0.21-0.731h0.272l-0.401,1.201C4603.088,2854.445,4603.049,2854.508,4602.998,2854.545z"/>
				<path fill="#FFFFFF" d="M4604.128,2853.46c0.024-0.069,0.058-0.129,0.1-0.178c0.044-0.049,0.096-0.087,0.157-0.113
					c0.061-0.027,0.128-0.041,0.203-0.041c0.076,0,0.145,0.014,0.205,0.041c0.062,0.026,0.114,0.064,0.157,0.113
					s0.076,0.108,0.1,0.178c0.024,0.069,0.036,0.147,0.036,0.233c0,0.085-0.012,0.162-0.036,0.23
					c-0.023,0.069-0.057,0.129-0.1,0.178s-0.096,0.086-0.157,0.112c-0.061,0.026-0.129,0.04-0.205,0.04
					c-0.075,0-0.143-0.014-0.203-0.04c-0.062-0.026-0.113-0.063-0.157-0.112c-0.042-0.049-0.075-0.108-0.1-0.178
					c-0.022-0.068-0.035-0.146-0.035-0.23C4604.093,2853.607,4604.105,2853.529,4604.128,2853.46z M4604.367,2853.817
					c0.008,0.041,0.02,0.078,0.038,0.11c0.019,0.031,0.042,0.058,0.071,0.077c0.03,0.02,0.067,0.029,0.111,0.029
					c0.045,0,0.082-0.01,0.113-0.029c0.029-0.02,0.054-0.046,0.072-0.077c0.018-0.032,0.029-0.069,0.038-0.11
					c0.007-0.04,0.011-0.082,0.011-0.124c0-0.044-0.004-0.086-0.011-0.127c-0.009-0.041-0.021-0.078-0.038-0.109
					c-0.019-0.031-0.043-0.058-0.072-0.078c-0.031-0.02-0.068-0.029-0.113-0.029c-0.044,0-0.081,0.01-0.111,0.029
					c-0.029,0.021-0.053,0.047-0.071,0.078s-0.03,0.068-0.038,0.109s-0.011,0.083-0.011,0.127
					C4604.356,2853.735,4604.359,2853.777,4604.367,2853.817z"/>
				<path fill="#FFFFFF" d="M4605.156,2853.354v-0.196h0.157v-0.083c0-0.096,0.026-0.173,0.08-0.233
					c0.053-0.061,0.134-0.091,0.241-0.091c0.023,0,0.047,0.001,0.07,0.003s0.047,0.004,0.068,0.005v0.22
					c-0.03-0.005-0.062-0.007-0.096-0.007c-0.036,0-0.062,0.01-0.077,0.028s-0.023,0.051-0.023,0.094v0.064h0.182v0.196h-0.182
					v0.873h-0.264v-0.873H4605.156z"/>
				<path fill="#FFFFFF" d="M4607.393,2854.113c-0.1,0.097-0.239,0.146-0.416,0.146c-0.18,0-0.317-0.048-0.416-0.144
					c-0.1-0.098-0.148-0.246-0.148-0.447v-0.918h0.291v0.918c0,0.039,0.004,0.079,0.01,0.117c0.007,0.039,0.02,0.073,0.039,0.103
					c0.02,0.03,0.047,0.055,0.082,0.072c0.036,0.02,0.084,0.028,0.143,0.028c0.104,0,0.176-0.025,0.216-0.078
					c0.039-0.051,0.059-0.132,0.059-0.242v-0.918h0.292v0.918C4607.543,2853.868,4607.492,2854.017,4607.393,2854.113z"/>
				<path fill="#FFFFFF" d="M4608.084,2852.75v1.477h-0.291v-1.477H4608.084z"/>
			</g>
			<g enable-background="new    ">
				<path d="M4606.537,2906.714c0.563,0.194,0.957,0.514,1.183,0.957c0.225,0.443,0.338,1.188,0.338,2.231v1.387
					c0,0.659,0.062,1.099,0.187,1.32c0.124,0.222,0.351,0.377,0.679,0.466c0.073,0.019,0.178,0.037,0.313,0.056
					c0.498,0.074,0.746,0.328,0.746,0.762c0,0.211-0.064,0.375-0.194,0.492c-0.13,0.118-0.313,0.177-0.55,0.177
					c-0.954,0-1.626-0.263-2.016-0.788s-0.584-1.514-0.584-2.965v-1.103c0-0.734-0.093-1.253-0.278-1.558
					c-0.187-0.304-0.643-0.525-1.368-0.663c-0.22-0.038-0.378-0.114-0.474-0.23s-0.144-0.297-0.144-0.541
					c0-0.201,0.04-0.357,0.118-0.471c0.079-0.113,0.206-0.194,0.381-0.245c0.084-0.019,0.205-0.05,0.362-0.094
					c0.935-0.219,1.402-0.937,1.402-2.151v-1.118c0-1.451,0.197-2.443,0.593-2.978c0.395-0.534,1.069-0.801,2.023-0.801
					c0.231,0,0.41,0.062,0.537,0.185s0.19,0.292,0.19,0.507c0,0.436-0.248,0.688-0.746,0.757c-0.096,0.02-0.173,0.032-0.229,0.038
					c-0.356,0.075-0.604,0.23-0.742,0.465c-0.139,0.235-0.208,0.69-0.208,1.367v1.381c0,1.047-0.113,1.789-0.338,2.228
					C4607.494,2906.222,4607.101,2906.532,4606.537,2906.714z"/>
				<path d="M4621.297,2932.852v-6.031h-0.161c-0.383,0-0.646-0.051-0.789-0.151c-0.144-0.1-0.216-0.275-0.216-0.526
					c0-0.232,0.06-0.4,0.178-0.504s0.31-0.155,0.574-0.155h0.396h0.812c0.151,0,0.27,0.035,0.354,0.104
					c0.084,0.069,0.127,0.163,0.127,0.282v0.641c0.41-0.427,0.817-0.742,1.22-0.946c0.402-0.203,0.82-0.306,1.254-0.306
					c0.851,0,1.52,0.295,2.006,0.885c0.487,0.59,0.73,1.405,0.73,2.446v4.263h0.397c0.281,0,0.484,0.052,0.607,0.155
					c0.124,0.104,0.187,0.269,0.187,0.494c0,0.245-0.066,0.419-0.199,0.522c-0.132,0.104-0.367,0.155-0.705,0.155h-1.866
					c-0.36,0-0.591-0.047-0.692-0.142c-0.102-0.094-0.152-0.272-0.152-0.536c0-0.244,0.06-0.414,0.178-0.508
					c0.118-0.095,0.341-0.142,0.667-0.142h0.296v-3.914c0-0.734-0.149-1.294-0.448-1.68c-0.298-0.386-0.731-0.579-1.3-0.579
					c-0.574,0-1.081,0.217-1.521,0.649s-0.658,0.969-0.658,1.609v3.914h0.295c0.338,0,0.566,0.047,0.685,0.142
					c0.118,0.094,0.177,0.264,0.177,0.508c0,0.264-0.051,0.442-0.151,0.536c-0.102,0.095-0.35,0.142-0.743,0.142h-1.537h-0.456
					c-0.231,0-0.404-0.055-0.52-0.165c-0.115-0.109-0.173-0.28-0.173-0.513c0-0.251,0.065-0.422,0.198-0.513
					c0.132-0.091,0.39-0.137,0.772-0.137H4621.297z"/>
				<path d="M4636.76,2932.983c-0.462,0.465-0.965,0.819-1.508,1.063c-0.543,0.245-1.102,0.367-1.676,0.367
					c-0.84,0-1.517-0.261-2.031-0.781c-0.516-0.521-0.773-1.198-0.773-2.032c0-0.991,0.343-1.76,1.026-2.306
					c0.685-0.546,1.646-0.818,2.884-0.818c0.327,0,0.656,0.023,0.988,0.07s0.673,0.121,1.022,0.221v-0.065
					c0-0.722-0.155-1.255-0.465-1.6c-0.31-0.346-0.791-0.518-1.444-0.518c-0.439,0-0.929,0.132-1.47,0.395
					c-0.54,0.264-0.897,0.396-1.072,0.396c-0.163,0-0.298-0.073-0.405-0.221s-0.16-0.338-0.16-0.569c0-0.37,0.311-0.684,0.933-0.941
					c0.622-0.257,1.418-0.386,2.386-0.386c0.991,0,1.74,0.281,2.247,0.842c0.507,0.562,0.76,1.392,0.76,2.489v4.263h0.414
					c0.399,0,0.667,0.047,0.802,0.142c0.136,0.094,0.203,0.264,0.203,0.508c0,0.226-0.057,0.396-0.169,0.509
					c-0.113,0.112-0.281,0.169-0.507,0.169h-1.326c-0.157,0-0.287-0.054-0.389-0.16c-0.101-0.106-0.168-0.26-0.202-0.461
					L4636.76,2932.983z M4636.692,2930.02c-0.311-0.113-0.61-0.196-0.899-0.249c-0.29-0.054-0.579-0.08-0.866-0.08
					c-0.867,0-1.551,0.163-2.052,0.489s-0.752,0.766-0.752,1.317c0,0.427,0.156,0.777,0.469,1.054s0.711,0.414,1.195,0.414
					c0.715,0,1.378-0.209,1.988-0.626c0.611-0.417,0.917-0.852,0.917-1.303V2930.02z"/>
				<path d="M4648.312,2928.938c0-0.885-0.071-1.482-0.214-1.793s-0.387-0.466-0.733-0.466c-0.414,0-0.742,0.201-0.985,0.603
					s-0.364,0.953-0.364,1.656v3.914h0.151c0.344,0,0.573,0.046,0.688,0.137s0.173,0.262,0.173,0.513
					c0,0.226-0.048,0.396-0.144,0.509c-0.096,0.112-0.242,0.169-0.438,0.169h-1.073c-0.242,0-0.406-0.062-0.494-0.188
					c-0.087-0.125-0.131-0.395-0.131-0.809v-0.273v-3.971v-0.734c0-0.471-0.095-0.842-0.284-1.115
					c-0.19-0.272-0.45-0.409-0.78-0.409c-0.251,0-0.482,0.083-0.691,0.249c-0.21,0.167-0.39,0.413-0.541,0.739v5.185h0.312
					c0.338,0,0.566,0.047,0.685,0.142c0.118,0.094,0.177,0.264,0.177,0.508c0,0.258-0.048,0.435-0.144,0.532
					c-0.096,0.097-0.278,0.146-0.549,0.146h-2.26c-0.221,0-0.383-0.055-0.488-0.165c-0.104-0.109-0.157-0.28-0.157-0.513
					c0-0.251,0.066-0.422,0.199-0.513c0.132-0.091,0.39-0.137,0.772-0.137h0.169v-6.031h-0.152c-0.395,0-0.663-0.051-0.807-0.151
					c-0.144-0.1-0.215-0.275-0.215-0.526c0-0.22,0.057-0.385,0.17-0.494s0.282-0.165,0.509-0.165h1.299
					c0.188,0,0.312,0.036,0.373,0.108c0.06,0.072,0.095,0.225,0.106,0.456c0.229-0.275,0.477-0.479,0.739-0.611
					c0.264-0.132,0.561-0.197,0.891-0.197c0.392,0,0.715,0.096,0.97,0.287s0.444,0.481,0.567,0.87
					c0.236-0.396,0.51-0.687,0.819-0.875s0.664-0.282,1.064-0.282c0.726,0,1.257,0.264,1.592,0.79
					c0.335,0.527,0.502,1.381,0.502,2.56v4.263h0.136c0.349,0,0.582,0.047,0.7,0.142c0.118,0.094,0.178,0.264,0.178,0.508
					c0,0.226-0.051,0.396-0.152,0.509c-0.101,0.112-0.25,0.169-0.447,0.169h-1.03c-0.228,0-0.396-0.075-0.505-0.226
					s-0.162-0.39-0.162-0.716V2928.938z"/>
				<path d="M4652.721,2930.245c0.045,0.903,0.319,1.602,0.823,2.094c0.504,0.493,1.192,0.739,2.064,0.739
					c0.659,0,1.377-0.196,2.154-0.589c0.776-0.392,1.246-0.588,1.41-0.588c0.169,0,0.31,0.06,0.422,0.179s0.169,0.267,0.169,0.442
					c0,0.182-0.059,0.349-0.178,0.499c-0.118,0.15-0.307,0.298-0.565,0.442c-0.562,0.307-1.145,0.542-1.744,0.705
					s-1.194,0.245-1.786,0.245c-1.283,0-2.311-0.412-3.082-1.237s-1.157-1.918-1.157-3.279c0-1.387,0.408-2.51,1.225-3.369
					s1.881-1.289,3.192-1.289c1.188,0,2.173,0.401,2.956,1.204c0.782,0.804,1.174,1.775,1.174,2.917
					c0,0.352-0.066,0.587-0.199,0.706c-0.132,0.119-0.491,0.179-1.076,0.179h-0.127H4652.721z M4652.763,2929.013h5.498
					c-0.085-0.747-0.365-1.348-0.841-1.803c-0.476-0.454-1.06-0.682-1.752-0.682c-0.749,0-1.38,0.22-1.892,0.658
					C4653.264,2927.626,4652.926,2928.234,4652.763,2929.013z"/>
				<path d="M4664.299,2927.432c0-0.489,0.153-0.891,0.46-1.204c0.307-0.314,0.705-0.471,1.195-0.471
					c0.501,0,0.903,0.153,1.207,0.461c0.305,0.308,0.456,0.712,0.456,1.214s-0.153,0.906-0.46,1.214s-0.708,0.461-1.203,0.461
					c-0.496,0-0.896-0.153-1.199-0.461C4664.45,2928.338,4664.299,2927.934,4664.299,2927.432z M4664.299,2932.636
					c0-0.489,0.153-0.891,0.46-1.205c0.307-0.313,0.705-0.471,1.195-0.471c0.501,0,0.903,0.154,1.207,0.462
					c0.305,0.307,0.456,0.712,0.456,1.214s-0.153,0.906-0.46,1.214s-0.708,0.461-1.203,0.461c-0.496,0-0.896-0.153-1.199-0.461
					C4664.45,2933.542,4664.299,2933.138,4664.299,2932.636z"/>
				<path d="M4685.124,2925.926c-0.141,0-0.243-0.039-0.309-0.117c-0.064-0.079-0.105-0.237-0.122-0.476l-0.262-3.473v-0.112
					c0-0.157,0.03-0.273,0.093-0.349c0.062-0.075,0.157-0.112,0.287-0.112h0.811c0.13,0,0.226,0.037,0.287,0.112
					c0.062,0.075,0.093,0.191,0.093,0.349v0.112l-0.253,3.473c-0.022,0.238-0.064,0.396-0.127,0.476
					c-0.062,0.078-0.163,0.117-0.304,0.117H4685.124z M4688.11,2925.926c-0.141,0-0.241-0.039-0.303-0.117
					c-0.062-0.079-0.104-0.237-0.126-0.476l-0.261-3.473v-0.112c0-0.157,0.032-0.273,0.097-0.349s0.158-0.112,0.281-0.112h0.815
					c0.123,0,0.217,0.037,0.281,0.112s0.097,0.191,0.097,0.349v0.112l-0.261,3.473c-0.022,0.238-0.064,0.396-0.126,0.476
					c-0.062,0.078-0.162,0.117-0.303,0.117H4688.11z"/>
				<path d="M4697.437,2932.852c0.276,0,0.476,0.052,0.6,0.155s0.187,0.269,0.187,0.494c0,0.251-0.06,0.427-0.178,0.527
					s-0.344,0.15-0.676,0.15h-4.13c-0.191,0-0.338-0.058-0.438-0.174c-0.102-0.116-0.152-0.284-0.152-0.504s0.049-0.383,0.147-0.489
					s0.252-0.16,0.461-0.16h1.089v-8.479h-0.591c-0.496,0-0.804-0.048-0.925-0.146s-0.182-0.274-0.182-0.532
					c0-0.219,0.051-0.387,0.152-0.503c0.101-0.116,0.247-0.174,0.438-0.174h3.91c1.368,0,2.407,0.295,3.116,0.884
					c0.71,0.59,1.064,1.459,1.064,2.607c0,1.147-0.352,2.014-1.056,2.597c-0.704,0.584-1.745,0.875-3.125,0.875h-1.478v2.87
					H4697.437z M4695.672,2924.373v4.366h1.579c0.884,0,1.546-0.182,1.984-0.546c0.439-0.363,0.659-0.912,0.659-1.646
					c0-0.722-0.221-1.264-0.663-1.628c-0.442-0.363-1.103-0.546-1.98-0.546H4695.672z"/>
				<path d="M4704.615,2930.245c0.045,0.903,0.319,1.602,0.823,2.094c0.504,0.493,1.192,0.739,2.064,0.739
					c0.659,0,1.377-0.196,2.154-0.589c0.776-0.392,1.246-0.588,1.41-0.588c0.169,0,0.31,0.06,0.422,0.179s0.169,0.267,0.169,0.442
					c0,0.182-0.059,0.349-0.178,0.499c-0.118,0.15-0.307,0.298-0.565,0.442c-0.562,0.307-1.145,0.542-1.744,0.705
					s-1.194,0.245-1.786,0.245c-1.283,0-2.311-0.412-3.082-1.237s-1.157-1.918-1.157-3.279c0-1.387,0.408-2.51,1.225-3.369
					s1.881-1.289,3.192-1.289c1.188,0,2.173,0.401,2.956,1.204c0.782,0.804,1.174,1.775,1.174,2.917
					c0,0.352-0.066,0.587-0.199,0.706c-0.132,0.119-0.491,0.179-1.076,0.179h-0.127H4704.615z M4704.657,2929.013h5.498
					c-0.085-0.747-0.365-1.348-0.841-1.803c-0.476-0.454-1.06-0.682-1.752-0.682c-0.749,0-1.38,0.22-1.892,0.658
					C4705.158,2927.626,4704.82,2928.234,4704.657,2929.013z"/>
				<path d="M4716.312,2930.574v2.776c0,0.251-0.047,0.452-0.14,0.603s-0.213,0.226-0.358,0.226h-1.562
					c-0.22,0-0.386-0.057-0.498-0.169c-0.113-0.113-0.169-0.283-0.169-0.509c0-0.251,0.065-0.422,0.198-0.513
					c0.132-0.091,0.415-0.137,0.849-0.137h0.405v-9.636h-0.347c-0.483,0-0.796-0.049-0.937-0.146
					c-0.142-0.098-0.212-0.274-0.212-0.532c0-0.226,0.058-0.396,0.174-0.508c0.115-0.113,0.282-0.17,0.502-0.17h1.613
					c0.152,0,0.271,0.035,0.354,0.104c0.085,0.069,0.127,0.164,0.127,0.282v6.748l2.44-2.277c-0.186-0.088-0.322-0.186-0.409-0.292
					c-0.088-0.106-0.131-0.232-0.131-0.377c0-0.188,0.062-0.329,0.186-0.423c0.124-0.095,0.304-0.142,0.54-0.142h2.289
					c0.214,0,0.377,0.054,0.489,0.16c0.113,0.106,0.169,0.267,0.169,0.48c0,0.376-0.272,0.596-0.818,0.658
					c-0.107,0.013-0.191,0.025-0.254,0.038c-0.23,0.031-0.484,0.13-0.76,0.296c-0.276,0.166-0.555,0.388-0.836,0.663l-1.225,1.195
					l3.2,3.877h0.727c0.242,0,0.415,0.051,0.52,0.15c0.104,0.101,0.156,0.268,0.156,0.499c0,0.22-0.058,0.388-0.173,0.504
					c-0.116,0.116-0.283,0.174-0.503,0.174h-2.289c-0.247,0-0.428-0.047-0.54-0.142c-0.112-0.094-0.169-0.244-0.169-0.451
					c0-0.17,0.055-0.315,0.165-0.438c0.109-0.122,0.274-0.222,0.494-0.297l-2.509-3.049L4716.312,2930.574z"/>
				<path d="M4726.69,2930.574v2.776c0,0.251-0.047,0.452-0.14,0.603s-0.213,0.226-0.358,0.226h-1.562
					c-0.22,0-0.386-0.057-0.498-0.169c-0.113-0.113-0.169-0.283-0.169-0.509c0-0.251,0.065-0.422,0.198-0.513
					c0.132-0.091,0.415-0.137,0.849-0.137h0.405v-9.636h-0.347c-0.483,0-0.796-0.049-0.937-0.146
					c-0.142-0.098-0.212-0.274-0.212-0.532c0-0.226,0.058-0.396,0.174-0.508c0.115-0.113,0.282-0.17,0.502-0.17h1.613
					c0.152,0,0.271,0.035,0.354,0.104c0.085,0.069,0.127,0.164,0.127,0.282v6.748l2.44-2.277c-0.186-0.088-0.322-0.186-0.409-0.292
					c-0.088-0.106-0.131-0.232-0.131-0.377c0-0.188,0.062-0.329,0.186-0.423c0.124-0.095,0.304-0.142,0.54-0.142h2.289
					c0.214,0,0.377,0.054,0.489,0.16c0.113,0.106,0.169,0.267,0.169,0.48c0,0.376-0.272,0.596-0.818,0.658
					c-0.107,0.013-0.191,0.025-0.254,0.038c-0.23,0.031-0.484,0.13-0.76,0.296c-0.276,0.166-0.555,0.388-0.836,0.663l-1.225,1.195
					l3.2,3.877h0.727c0.242,0,0.415,0.051,0.52,0.15c0.104,0.101,0.156,0.268,0.156,0.499c0,0.22-0.058,0.388-0.173,0.504
					c-0.116,0.116-0.283,0.174-0.503,0.174h-2.289c-0.247,0-0.428-0.047-0.54-0.142c-0.112-0.094-0.169-0.244-0.169-0.451
					c0-0.17,0.055-0.315,0.165-0.438c0.109-0.122,0.274-0.222,0.494-0.297l-2.509-3.049L4726.69,2930.574z"/>
				<path d="M4740.549,2932.983c-0.462,0.465-0.965,0.819-1.508,1.063c-0.543,0.245-1.102,0.367-1.676,0.367
					c-0.84,0-1.517-0.261-2.031-0.781c-0.516-0.521-0.773-1.198-0.773-2.032c0-0.991,0.343-1.76,1.026-2.306
					c0.685-0.546,1.646-0.818,2.884-0.818c0.327,0,0.656,0.023,0.988,0.07s0.673,0.121,1.022,0.221v-0.065
					c0-0.722-0.155-1.255-0.465-1.6c-0.31-0.346-0.791-0.518-1.444-0.518c-0.439,0-0.929,0.132-1.47,0.395
					c-0.54,0.264-0.897,0.396-1.072,0.396c-0.163,0-0.298-0.073-0.405-0.221s-0.16-0.338-0.16-0.569c0-0.37,0.311-0.684,0.933-0.941
					c0.622-0.257,1.418-0.386,2.386-0.386c0.991,0,1.74,0.281,2.247,0.842c0.507,0.562,0.76,1.392,0.76,2.489v4.263h0.414
					c0.399,0,0.667,0.047,0.802,0.142c0.136,0.094,0.203,0.264,0.203,0.508c0,0.226-0.057,0.396-0.169,0.509
					c-0.113,0.112-0.281,0.169-0.507,0.169h-1.326c-0.157,0-0.287-0.054-0.389-0.16c-0.101-0.106-0.168-0.26-0.202-0.461
					L4740.549,2932.983z M4740.481,2930.02c-0.311-0.113-0.61-0.196-0.899-0.249c-0.29-0.054-0.579-0.08-0.866-0.08
					c-0.867,0-1.551,0.163-2.052,0.489s-0.752,0.766-0.752,1.317c0,0.427,0.156,0.777,0.469,1.054s0.711,0.414,1.195,0.414
					c0.715,0,1.378-0.209,1.988-0.626c0.611-0.417,0.917-0.852,0.917-1.303V2930.02z"/>
				<path d="M4747.397,2925.926c-0.141,0-0.243-0.039-0.309-0.117c-0.064-0.079-0.105-0.237-0.122-0.476l-0.262-3.473v-0.112
					c0-0.157,0.03-0.273,0.093-0.349c0.062-0.075,0.157-0.112,0.287-0.112h0.811c0.13,0,0.226,0.037,0.287,0.112
					c0.062,0.075,0.093,0.191,0.093,0.349v0.112l-0.253,3.473c-0.022,0.238-0.064,0.396-0.127,0.476
					c-0.062,0.078-0.163,0.117-0.304,0.117H4747.397z M4750.384,2925.926c-0.141,0-0.241-0.039-0.303-0.117
					c-0.062-0.079-0.104-0.237-0.126-0.476l-0.261-3.473v-0.112c0-0.157,0.032-0.273,0.097-0.349s0.158-0.112,0.281-0.112h0.815
					c0.123,0,0.217,0.037,0.281,0.112s0.097,0.191,0.097,0.349v0.112l-0.261,3.473c-0.022,0.238-0.064,0.396-0.126,0.476
					c-0.062,0.078-0.162,0.117-0.303,0.117H4750.384z"/>
				<path d="M4758.367,2931.554c0.045-0.214,0.104-0.351,0.178-0.41s0.197-0.089,0.371-0.089h1.85c0.085,0,0.152,0.019,0.203,0.057
					c0.051,0.037,0.076,0.084,0.076,0.141c0,0.031-0.006,0.072-0.018,0.122c-0.011,0.051-0.028,0.098-0.051,0.142l-2.322,5.383
					c-0.039,0.094-0.093,0.169-0.16,0.226s-0.141,0.085-0.22,0.085c-0.017,0-0.035-0.004-0.055-0.01s-0.052-0.019-0.097-0.037
					l-0.592-0.245c-0.09-0.044-0.157-0.094-0.202-0.15c-0.046-0.057-0.068-0.122-0.068-0.197c0-0.069,0-0.118,0-0.146
					s0.006-0.058,0.018-0.089L4758.367,2931.554z"/>
				<path d="M4626.381,2956.109c-0.462,0.465-0.965,0.819-1.508,1.063c-0.543,0.245-1.102,0.367-1.676,0.367
					c-0.84,0-1.517-0.261-2.031-0.781c-0.516-0.521-0.773-1.198-0.773-2.032c0-0.991,0.343-1.76,1.026-2.306
					c0.685-0.546,1.646-0.818,2.884-0.818c0.327,0,0.656,0.023,0.988,0.07s0.673,0.121,1.022,0.221v-0.065
					c0-0.722-0.155-1.255-0.465-1.6c-0.31-0.346-0.791-0.518-1.444-0.518c-0.439,0-0.929,0.132-1.47,0.395
					c-0.54,0.264-0.897,0.396-1.072,0.396c-0.163,0-0.298-0.073-0.405-0.221s-0.16-0.338-0.16-0.569c0-0.37,0.311-0.684,0.933-0.941
					c0.622-0.257,1.418-0.386,2.386-0.386c0.991,0,1.74,0.281,2.247,0.842c0.507,0.562,0.76,1.392,0.76,2.489v4.263h0.414
					c0.399,0,0.667,0.047,0.802,0.142c0.136,0.094,0.203,0.264,0.203,0.508c0,0.226-0.057,0.396-0.169,0.509
					c-0.113,0.112-0.281,0.169-0.507,0.169h-1.326c-0.157,0-0.287-0.054-0.389-0.16c-0.101-0.106-0.168-0.26-0.202-0.461
					L4626.381,2956.109z M4626.313,2953.146c-0.311-0.113-0.61-0.196-0.899-0.249c-0.29-0.054-0.579-0.08-0.866-0.08
					c-0.867,0-1.551,0.163-2.052,0.489s-0.752,0.766-0.752,1.317c0,0.427,0.156,0.777,0.469,1.054s0.711,0.414,1.195,0.414
					c0.715,0,1.378-0.209,1.988-0.626c0.611-0.417,0.917-0.852,0.917-1.303V2953.146z"/>
				<path d="M4638.246,2956.806c0,0.879-0.04,1.501-0.118,1.868c-0.079,0.367-0.214,0.688-0.405,0.965
					c-0.315,0.464-0.758,0.816-1.326,1.059c-0.568,0.241-1.238,0.362-2.01,0.362c-0.643,0-1.11-0.069-1.406-0.207
					c-0.296-0.139-0.443-0.357-0.443-0.659c0-0.194,0.071-0.365,0.215-0.513s0.314-0.221,0.512-0.221c0.151,0,0.385,0.023,0.7,0.07
					s0.555,0.07,0.718,0.07c0.834,0,1.425-0.213,1.773-0.64c0.35-0.427,0.524-1.157,0.524-2.192v-1.139
					c-0.344,0.445-0.724,0.771-1.141,0.979s-0.896,0.311-1.436,0.311c-1.053,0-1.924-0.391-2.613-1.172
					c-0.69-0.781-1.035-1.771-1.035-2.969c0-1.204,0.354-2.203,1.064-2.997c0.709-0.794,1.588-1.19,2.635-1.19
					c0.434,0,0.857,0.09,1.271,0.269c0.414,0.179,0.832,0.45,1.255,0.813v-0.678c0-0.132,0.038-0.229,0.113-0.291
					c0.076-0.062,0.196-0.095,0.359-0.095h1.275c0.225,0,0.394,0.056,0.507,0.165c0.112,0.109,0.169,0.274,0.169,0.494
					c0,0.251-0.071,0.427-0.212,0.526c-0.141,0.101-0.405,0.151-0.794,0.151h-0.151V2956.806z M4634.581,2950.002
					c-0.738,0-1.341,0.255-1.808,0.763c-0.468,0.508-0.701,1.167-0.701,1.977c0,0.796,0.233,1.45,0.701,1.962
					c0.467,0.511,1.069,0.767,1.808,0.767c0.731,0,1.332-0.256,1.803-0.767c0.47-0.512,0.705-1.166,0.705-1.962
					c0-0.797-0.235-1.453-0.705-1.967C4635.913,2950.26,4635.312,2950.002,4634.581,2950.002z"/>
				<path d="M4642.342,2953.371c0.045,0.903,0.319,1.602,0.823,2.094c0.504,0.493,1.192,0.739,2.064,0.739
					c0.659,0,1.377-0.196,2.154-0.589c0.776-0.392,1.246-0.588,1.41-0.588c0.169,0,0.31,0.06,0.422,0.179s0.169,0.267,0.169,0.442
					c0,0.182-0.059,0.349-0.178,0.499c-0.118,0.15-0.307,0.298-0.565,0.442c-0.562,0.307-1.145,0.542-1.744,0.705
					s-1.194,0.245-1.786,0.245c-1.283,0-2.311-0.412-3.082-1.237s-1.157-1.918-1.157-3.279c0-1.387,0.408-2.51,1.225-3.369
					s1.881-1.289,3.192-1.289c1.188,0,2.173,0.401,2.956,1.204c0.782,0.804,1.174,1.775,1.174,2.917
					c0,0.352-0.066,0.587-0.199,0.706c-0.132,0.119-0.491,0.179-1.076,0.179h-0.127H4642.342z M4642.384,2952.139h5.498
					c-0.085-0.747-0.365-1.348-0.841-1.803c-0.476-0.454-1.06-0.682-1.752-0.682c-0.749,0-1.38,0.22-1.892,0.658
					C4642.885,2950.752,4642.547,2951.36,4642.384,2952.139z"/>
				<path d="M4653.92,2950.558c0-0.489,0.153-0.891,0.46-1.204c0.307-0.314,0.705-0.471,1.195-0.471
					c0.501,0,0.903,0.153,1.207,0.461c0.305,0.308,0.456,0.712,0.456,1.214s-0.153,0.906-0.46,1.214s-0.708,0.461-1.203,0.461
					c-0.496,0-0.896-0.153-1.199-0.461C4654.071,2951.464,4653.92,2951.06,4653.92,2950.558z M4653.92,2955.762
					c0-0.489,0.153-0.891,0.46-1.205c0.307-0.313,0.705-0.471,1.195-0.471c0.501,0,0.903,0.154,1.207,0.462
					c0.305,0.307,0.456,0.712,0.456,1.214s-0.153,0.906-0.46,1.214s-0.708,0.461-1.203,0.461c-0.496,0-0.896-0.153-1.199-0.461
					C4654.071,2956.668,4653.92,2956.264,4653.92,2955.762z"/>
				<path d="M4674.433,2949.946c0.372-0.151,0.715-0.263,1.03-0.334c0.315-0.072,0.616-0.108,0.903-0.108
					c0.985,0,1.806,0.381,2.462,1.143c0.656,0.763,0.984,1.708,0.984,2.838c0,1.198-0.363,2.187-1.09,2.964
					c-0.727,0.778-1.655,1.167-2.787,1.167c-0.945,0-1.738-0.143-2.377-0.428c-0.639-0.286-0.959-0.633-0.959-1.04
					c0-0.163,0.06-0.31,0.178-0.438c0.118-0.129,0.256-0.193,0.414-0.193c0.062,0,0.393,0.121,0.992,0.362
					c0.6,0.242,1.155,0.362,1.668,0.362c0.754,0,1.366-0.252,1.837-0.758c0.47-0.505,0.705-1.155,0.705-1.952
					c0-0.778-0.223-1.426-0.667-1.943c-0.445-0.518-1.005-0.776-1.681-0.776c-0.507,0-1.004,0.142-1.491,0.424
					c-0.486,0.282-0.781,0.423-0.882,0.423c-0.169,0-0.289-0.068-0.359-0.207c-0.07-0.138-0.105-0.389-0.105-0.753v-4.686
					c0-0.207,0.058-0.356,0.173-0.447s0.317-0.137,0.604-0.137h4.272c0.271,0,0.474,0.062,0.608,0.184s0.203,0.306,0.203,0.551
					c0,0.232-0.071,0.412-0.212,0.541s-0.34,0.193-0.6,0.193h-3.825V2949.946z"/>
				<path d="M4684.693,2947.208c-0.073,0.012-0.128,0.021-0.165,0.027c-0.036,0.007-0.068,0.01-0.097,0.01
					c-0.175,0-0.316-0.055-0.427-0.165c-0.109-0.109-0.164-0.255-0.164-0.438c0-0.15,0.047-0.282,0.144-0.395
					c0.095-0.113,0.233-0.198,0.413-0.255l2.509-0.752c0.062-0.02,0.122-0.033,0.182-0.043c0.059-0.009,0.119-0.014,0.182-0.014
					c0.106,0,0.19,0.055,0.253,0.164c0.062,0.11,0.093,0.259,0.093,0.447v10.182h1.352c0.501,0,0.819,0.046,0.954,0.137
					s0.202,0.262,0.202,0.513c0,0.226-0.056,0.396-0.168,0.509c-0.113,0.112-0.282,0.169-0.507,0.169h-5.051
					c-0.225,0-0.394-0.057-0.507-0.169c-0.112-0.113-0.169-0.283-0.169-0.509c0-0.251,0.068-0.422,0.203-0.513
					s0.453-0.137,0.954-0.137h1.402v-9.193L4684.693,2947.208z"/>
				<path d="M4607.821,2976.084c-0.569-0.183-0.968-0.495-1.195-0.938c-0.229-0.443-0.342-1.187-0.342-2.229v-1.381
					c0-0.664-0.062-1.11-0.187-1.339c-0.125-0.229-0.346-0.387-0.662-0.475c-0.073-0.019-0.184-0.037-0.331-0.056
					c-0.486-0.075-0.729-0.312-0.729-0.711c0-0.237,0.06-0.416,0.178-0.538c0.119-0.121,0.297-0.182,0.534-0.182
					c0.953,0,1.628,0.266,2.023,0.797c0.395,0.531,0.593,1.519,0.593,2.963v1.118c0,1.222,0.456,1.938,1.368,2.151
					c0.174,0.037,0.307,0.069,0.396,0.094c0.18,0.058,0.311,0.142,0.393,0.253s0.122,0.269,0.122,0.472
					c0,0.216-0.043,0.388-0.131,0.515c-0.087,0.127-0.221,0.21-0.4,0.248c-0.062,0.013-0.149,0.031-0.262,0.056
					c-0.991,0.214-1.486,0.941-1.486,2.184v1.092c0,1.455-0.195,2.446-0.585,2.974c-0.389,0.526-1.061,0.79-2.015,0.79
					c-0.243,0-0.425-0.061-0.546-0.184c-0.122-0.122-0.183-0.306-0.183-0.55c0-0.402,0.243-0.641,0.729-0.716
					c0.103-0.013,0.176-0.024,0.221-0.037c0.368-0.069,0.619-0.214,0.755-0.434c0.136-0.219,0.204-0.671,0.204-1.354v-1.393
					c0-1.032,0.113-1.773,0.342-2.223C4606.854,2976.602,4607.252,2976.279,4607.821,2976.084z"/>
			</g>
			
				<rect id="slide2" x="4575.342" y="2834.461" fill="none" stroke="#000000" stroke-miterlimit="10" width="228.857" height="171.762"/>
			<rect id="slide1_1_" x="4597.058" y="2843.669" fill="none" width="19.702" height="14.784"/>
		</g>
		<text transform="matrix(0 0.6576 -1 0 1283.6318 2755.4199)" font-family="'Baskerville'" font-size="889.1683">{</text>
		<g enable-background="new    ">
			<path d="M3781.849,2495.119l160.067,470.615h1.916l151.44-470.615h211.825v684.357H4166.2v-484.992h-1.917l-167.734,484.992
				h-115.977l-167.734-480.2h-1.917v480.2h-140.896v-684.357H3781.849z"/>
			<path d="M4427.864,2824.358c12.131-32.259,29.383-59.74,51.758-82.43c22.359-22.674,49.197-40.256,80.513-52.717
				c31.301-12.46,66.45-18.69,105.434-18.69c38.968,0,74.282,6.23,105.912,18.69c31.63,12.461,58.617,30.043,80.991,52.717
				c22.36,22.689,39.612,50.171,51.759,82.43c12.131,32.274,18.211,68.217,18.211,107.829c0,39.628-6.08,75.406-18.211,107.351
				c-12.146,31.959-29.398,59.276-51.759,81.95c-22.374,22.689-49.361,40.106-80.991,52.237s-66.944,18.211-105.912,18.211
				c-38.983,0-74.133-6.08-105.434-18.211c-31.315-12.131-58.153-29.548-80.513-52.237c-22.375-22.674-39.627-49.991-51.758-81.95
				c-12.146-31.944-18.212-67.723-18.212-107.351C4409.652,2892.575,4415.718,2856.633,4427.864,2824.358z M4551.509,2990.176
				c3.833,18.855,10.378,35.794,19.648,50.8c9.256,15.021,21.565,27.002,36.901,35.943c15.336,8.956,34.506,13.419,57.51,13.419
				c23.003,0,42.322-4.463,57.987-13.419c15.65-8.941,28.111-20.922,37.381-35.943c9.256-15.006,15.815-31.944,19.649-50.8
				c3.834-18.84,5.751-38.174,5.751-57.988c0-19.798-1.917-39.298-5.751-58.467c-3.834-19.17-10.394-36.093-19.649-50.8
				c-9.27-14.691-21.73-26.673-37.381-35.943c-15.665-9.255-34.984-13.897-57.987-13.897c-23.004,0-42.174,4.643-57.51,13.897
				c-15.336,9.271-27.646,21.252-36.901,35.943c-9.271,14.707-15.815,31.63-19.648,50.8c-3.834,19.169-5.751,38.669-5.751,58.467
				C4545.758,2952.002,4547.675,2971.336,4551.509,2990.176z"/>
			<path d="M5362.378,3116.217c-15.979,26.838-36.901,46.172-62.78,57.988c-25.88,11.816-55.113,17.731-87.701,17.731
				c-37.066,0-69.655-7.188-97.766-21.565c-28.126-14.377-51.279-33.861-69.49-58.468c-18.211-24.591-31.959-52.866-41.215-84.825
				c-9.271-31.945-13.897-65.178-13.897-99.683c0-33.218,4.627-65.327,13.897-96.327c9.256-30.986,23.004-58.303,41.215-81.951
				c18.211-23.632,41.05-42.652,68.531-57.029c27.467-14.377,59.427-21.566,95.849-21.566c29.384,0,57.345,6.23,83.867,18.69
				c26.508,12.461,47.445,30.837,62.781,55.113h1.917v-249.206h136.104v684.357h-129.396v-63.26H5362.378z M5356.627,2871.324
				c-3.834-18.84-10.394-35.464-19.648-49.841c-9.271-14.378-21.252-26.029-35.943-34.985c-14.707-8.94-33.232-13.418-55.592-13.418
				c-22.375,0-41.215,4.478-56.551,13.418c-15.336,8.956-27.646,20.772-36.901,35.464c-9.271,14.707-15.98,31.48-20.129,50.32
				c-4.163,18.855-6.229,38.505-6.229,58.947c0,19.17,2.231,38.339,6.709,57.509c4.463,19.17,11.651,36.272,21.566,51.279
				c9.899,15.021,22.359,27.167,37.381,36.422c15.006,9.271,33.067,13.898,54.154,13.898c22.359,0,41.05-4.463,56.071-13.419
				c15.006-8.941,26.987-20.922,35.942-35.943c8.941-15.006,15.336-32.109,19.17-51.278c3.834-19.17,5.751-38.969,5.751-59.427
				C5362.378,2909.828,5360.461,2890.18,5356.627,2871.324z"/>
			<path d="M5741.93,3060.625c20.443,19.813,49.842,29.713,88.181,29.713c27.467,0,51.114-6.859,70.928-20.607
				c19.799-13.733,31.944-28.275,36.423-43.611h119.811c-19.17,59.426-48.568,101.929-88.181,127.479
				c-39.628,25.564-87.552,38.339-143.772,38.339c-38.983,0-74.133-6.229-105.434-18.69c-31.315-12.46-57.838-30.191-79.554-53.195
				c-21.73-23.004-38.504-50.471-50.32-82.43c-11.832-31.944-17.732-67.094-17.732-105.434c0-37.051,6.065-71.557,18.211-103.516
				c12.131-31.944,29.384-59.576,51.759-82.909c22.359-23.318,49.032-41.694,80.033-55.112
				c30.985-13.419,65.326-20.129,103.037-20.129c42.173,0,78.91,8.147,110.226,24.441c31.3,16.295,57.029,38.189,77.157,65.656
				c20.129,27.481,34.655,58.797,43.611,93.932c8.94,35.149,12.131,71.886,9.585,110.226h-357.515
				C5710.3,3008.866,5721.473,3040.826,5741.93,3060.625z M5895.767,2799.917c-16.294-17.882-41.065-26.837-74.282-26.837
				c-21.73,0-39.777,3.684-54.154,11.022c-14.378,7.353-25.879,16.459-34.506,27.316c-8.626,10.873-14.707,22.375-18.211,34.506
				c-3.52,12.146-5.602,23.003-6.23,32.588h221.41C5923.397,2844.008,5912.061,2817.813,5895.767,2799.917z"/>
			<path d="M6286.339,2495.119v684.357h-136.104v-684.357H6286.339z"/>
		</g>
		<text transform="matrix(1 0 0 1 -1320.4746 367.9268)" font-family="'HelveticaNeue-Bold'" font-size="958.4833">View</text>
	</g>
</g>
</svg>
