<?xml version="1.0" encoding="utf-8"?>
<!-- Generator: Adobe Illustrator 15.0.2, SVG Export Plug-In . SVG Version: 6.00 Build 0)  -->
<!DOCTYPE svg PUBLIC "-//W3C//DTD SVG 1.0//EN" "http://www.w3.org/TR/2001/REC-SVG-20010904/DTD/svg10.dtd">
<svg version="1.0" id="Layer_2" xmlns="http://www.w3.org/2000/svg" xmlns:xlink="http://www.w3.org/1999/xlink" x="0px" y="0px"
	 width="640px" height="480px" viewBox="0 0 640 480" enable-background="new 0 0 640 480" xml:space="preserve">
<g id="main">
	
		<rect id="slide1" x="-1036.605" y="353.729" fill="none" stroke="#000000" stroke-miterlimit="10" width="143.204" height="200.771"/>
	
		<rect id="slide2" x="-758.971" y="342.295" fill="none" stroke="#000000" stroke-miterlimit="10" width="166.867" height="233.945"/>
	
		<rect id="slide3" x="-1114.846" y="196.861" fill="none" stroke="#000000" stroke-miterlimit="10" width="578.616" height="412.712"/>
	
		<rect id="slide4" x="-1157.282" y="236.593" fill="none" stroke="#000000" stroke-miterlimit="10" width="663.489" height="473.249"/>
	
		<rect id="slide5" x="-1268.701" y="217.121" fill="none" stroke="#000000" stroke-miterlimit="10" width="886.326" height="632.192"/>
	
		<text transform="matrix(4.489659e-11 -1 1 4.489659e-11 -940.4053 534.3955)" font-family="'HelveticaNeue-Medium'" font-size="72">View</text>
	
		<text transform="matrix(4.489659e-11 -1 1 4.489659e-11 -647.3052 564.8965)" font-family="'HelveticaNeue-Medium'" font-size="72">Model</text>
	<text transform="matrix(1 0 0 1 -953.6963 682.1787)" font-family="'HelveticaNeue-Medium'" font-size="72">UIModel</text>
	<text transform="matrix(1 0 0 1 -746.2192 289.1426)" font-family="'Baskerville-Italic'" font-size="42">teh Data</text>
	<text transform="matrix(1 0 0 1 -1062.3501 282.4756)" font-family="'Baskerville-Italic'" font-size="42">vizualization</text>
	<text transform="matrix(1 0 0 1 -909.8789 813.4756)" font-family="'Baskerville-Italic'" font-size="42">transient state</text>
	<text transform="matrix(0 1 -1 0 -996.5078 289.1426)" font-family="'Baskerville-Italic'" font-size="125.3273">{</text>
	
		<text transform="matrix(8.979319e-11 -1 1 8.979319e-11 -783.1738 776.1436)" font-family="'Baskerville-Italic'" font-size="125.3273">{</text>
	<text transform="matrix(0 1 -1 0 -706.0093 289.3301)" font-family="'Baskerville-Italic'" font-size="125.3273">{</text>
	<path fill="none" d="M-625.244,341.438l-0.187-1.284c-0.636-4.371-2.258-7.657-4.823-9.767c-2.624-2.158-5.384-3.208-8.441-3.208
		c-2.372,0-5.355,0.38-8.866,1.13c-4.424,0.876-8.042,1.318-10.778,1.318c-4.747,0-9.209-1.724-13.264-5.124
		c-3.109-2.608-5.576-5.883-7.363-9.766c-1.986,4.049-4.544,7.387-7.635,9.954c-3.993,3.315-8.423,4.996-13.167,4.996
		c-2.611,0-6.073-0.45-10.583-1.376c-3.55-0.711-6.54-1.071-8.877-1.071c-7.035,0-11.523,4.272-13.721,13.062l-0.284,1.136h-4.991
		l0.188-1.668c0.771-6.857,3.644-12.686,8.537-17.321c4.917-4.658,10.597-7.021,16.881-7.021c2.876,0,6.224,0.446,9.952,1.325
		c4.193,0.989,7.249,1.49,9.08,1.49c2.617,0,4.99-0.994,7.257-3.04c2.265-2.047,3.815-5.304,4.608-9.68l0.223-1.232h4.921l0.2,1.266
		c0.6,3.793,2.032,6.9,4.255,9.235c2.172,2.28,4.54,3.39,7.236,3.39c1.995,0,5.006-0.48,8.952-1.428
		c3.882-0.96,7.36-1.448,10.325-1.448c6.155,0,11.83,2.357,16.867,7.007c5.025,4.639,7.944,10.516,8.674,17.469l0.174,1.656
		H-625.244z"/>
	<text transform="matrix(0.9811 -0.1934 0.1934 0.9811 -660.1123 317.6553)"><tspan x="0" y="0" font-family="'Baskerville-Italic'" font-size="3">B</tspan><tspan x="1.828" y="-0.005" font-family="'Baskerville-Italic'" font-size="3" rotate="-1.231">u</tspan><tspan x="3.119" y="-0.035" font-family="'Baskerville-Italic'" font-size="3" rotate="-1.901">t</tspan><tspan x="3.85" y="-0.058" font-family="'Baskerville-Italic'" font-size="3" rotate="-2.276"> </tspan><tspan x="4.583" y="-0.097" font-family="'Baskerville-Italic'" font-size="3" rotate="-1.602">w</tspan><tspan x="6.463" y="-0.146" font-family="'Baskerville-Italic'" font-size="3" rotate="-0.074">h</tspan><tspan x="7.677" y="-0.146" font-family="'Baskerville-Italic'" font-size="3" rotate="1.073">e</tspan><tspan x="8.581" y="-0.129" font-family="'Baskerville-Italic'" font-size="3" rotate="2.083">r</tspan><tspan x="9.452" y="-0.099" font-family="'Baskerville-Italic'" font-size="3" rotate="3.189">e</tspan><tspan x="10.356" y="-0.048" font-family="'Baskerville-Italic'" font-size="3" rotate="4.288"> </tspan><tspan x="11.079" y="0.007" font-family="'Baskerville-Italic'" font-size="3" rotate="5.329">t</tspan><tspan x="11.773" y="0.068" font-family="'Baskerville-Italic'" font-size="3" rotate="6.721">o</tspan><tspan x="12.85" y="0.197" font-family="'Baskerville-Italic'" font-size="3" rotate="8.274"> </tspan><tspan x="13.586" y="0.299" font-family="'Baskerville-Italic'" font-size="3" rotate="10.158">p</tspan><tspan x="14.779" y="0.511" font-family="'Baskerville-Italic'" font-size="3" rotate="12.915">u</tspan><tspan x="16.01" y="0.798" font-family="'Baskerville-Italic'" font-size="3" rotate="15.313">t</tspan><tspan x="16.681" y="0.982" font-family="'Baskerville-Italic'" font-size="3" rotate="17.072"> </tspan><tspan x="17.374" y="1.194" font-family="'Baskerville-Italic'" font-size="3" rotate="18.844">t</tspan><tspan x="18.028" y="1.411" font-family="'Baskerville-Italic'" font-size="3" rotate="21.241">h</tspan><tspan x="19.173" y="1.86" font-family="'Baskerville-Italic'" font-size="3" rotate="23.915">e</tspan><tspan x="19.986" y="2.221" font-family="'Baskerville-Italic'" font-size="3" rotate="25.963"> </tspan><tspan x="20.635" y="2.537" font-family="'Baskerville-Italic'" font-size="3" rotate="27.742">t</tspan><tspan x="21.258" y="2.862" font-family="'Baskerville-Italic'" font-size="3" rotate="29.725">e</tspan><tspan x="22.022" y="3.28" font-family="'Baskerville-Italic'" font-size="3" rotate="33.101">m</tspan><tspan x="23.584" y="4.311" font-family="'Baskerville-Italic'" font-size="3" rotate="36.799">p</tspan><tspan x="24.561" y="5.044" font-family="'Baskerville-Italic'" font-size="3" rotate="39.438">o</tspan><tspan x="25.396" y="5.733" font-family="'Baskerville-Italic'" font-size="3" rotate="41.626">r</tspan><tspan x="26.035" y="6.297" font-family="'Baskerville-Italic'" font-size="3" rotate="43.88">a</tspan><tspan x="26.899" y="7.131" font-family="'Baskerville-Italic'" font-size="3" rotate="46.001">r</tspan><tspan x="27.512" y="7.762" font-family="'Baskerville-Italic'" font-size="3" rotate="47.99">y</tspan><tspan x="28.219" y="8.551" font-family="'Baskerville-Italic'" font-size="3" rotate="49.716"> </tspan><tspan x="28.69" y="9.105" font-family="'Baskerville-Italic'" font-size="3" rotate="51.24">s</tspan><tspan x="29.277" y="9.837" font-family="'Baskerville-Italic'" font-size="3" rotate="52.741">t</tspan><tspan x="29.704" y="10.39" font-family="'Baskerville-Italic'" font-size="3" rotate="54.513">u</tspan><tspan x="30.431" y="11.418" font-family="'Baskerville-Italic'" font-size="3" rotate="56.452">f</tspan><tspan x="30.835" y="12.027" font-family="'Baskerville-Italic'" font-size="3" rotate="57.913">f</tspan><tspan x="31.22" y="12.637" font-family="'Baskerville-Italic'" font-size="3" rotate="59.669">?</tspan></text>
	<path fill="none" d="M-623.095,338.938h0.403c-0.845-5.85-3.448-10.82-7.746-14.788c-4.561-4.209-9.665-6.344-15.171-6.344
		c-2.763,0-6.038,0.464-9.741,1.38c-4.194,1.007-7.313,1.496-9.535,1.496c-3.37,0-6.414-1.401-9.047-4.166
		c-2.409-2.529-4.01-5.798-4.766-9.725h-0.723c-0.94,4.526-2.699,7.978-5.233,10.268c-2.708,2.445-5.713,3.685-8.932,3.685
		c-2.053,0-5.21-0.51-9.653-1.557c-3.54-0.835-6.695-1.259-9.378-1.259c-5.624,0-10.725,2.132-15.162,6.335
		c-4.188,3.967-6.749,8.899-7.625,14.675h0.229c2.565-9.422,7.928-14.197,15.949-14.197c2.502,0,5.657,0.377,9.38,1.122
		c4.282,0.879,7.673,1.325,10.08,1.325c4.145,0,8.038-1.487,11.569-4.42c3.58-2.973,6.394-7.116,8.363-12.313l0.999-2.637
		l0.885,2.677c1.646,4.978,4.323,9.047,7.955,12.093c3.592,3.013,7.514,4.54,11.658,4.54c2.235,0,5.692-0.359,10.255-1.263
		c3.682-0.787,6.841-1.186,9.388-1.186c3.609,0,6.983,1.271,10.029,3.777C-625.783,330.828-623.911,334.352-623.095,338.938z"/>
	<text transform="matrix(0.7373 0.6755 -0.6755 0.7373 -671.0327 321.6699)"><tspan x="0" y="0" fill="#FFFFFF" font-family="'Baskerville-Italic'" font-size="1.2">Y</tspan><tspan x="0.666" y="-0.002" fill="#FFFFFF" font-family="'Baskerville-Italic'" font-size="1.2" rotate="-1.329">o</tspan><tspan x="1.129" y="-0.01" fill="#FFFFFF" font-family="'Baskerville-Italic'" font-size="1.2" rotate="-2.837">u</tspan><tspan x="1.644" y="-0.036" fill="#FFFFFF" font-family="'Baskerville-Italic'" font-size="1.2" rotate="-3.478"> </tspan><tspan x="1.97" y="-0.055" fill="#FFFFFF" font-family="'Baskerville-Italic'" font-size="1.2" rotate="-4.481">k</tspan><tspan x="2.426" y="-0.091" fill="#FFFFFF" font-family="'Baskerville-Italic'" font-size="1.2" rotate="-5.675">n</tspan><tspan x="2.94" y="-0.143" fill="#FFFFFF" font-family="'Baskerville-Italic'" font-size="1.2" rotate="-6.91">o</tspan><tspan x="3.412" y="-0.198" fill="#FFFFFF" font-family="'Baskerville-Italic'" font-size="1.2" rotate="-8.596">w</tspan><tspan x="4.155" y="-0.312" fill="#FFFFFF" font-family="'Baskerville-Italic'" font-size="1.2" rotate="-10.06">,</tspan><tspan x="4.454" y="-0.364" fill="#FFFFFF" font-family="'Baskerville-Italic'" font-size="1.2" rotate="-10.91"> </tspan><tspan x="4.752" y="-0.42" fill="#FFFFFF" font-family="'CourierNewPSMT'" font-size="1.2" rotate="-12.425">s</tspan><tspan x="5.494" y="-0.584" fill="#FFFFFF" font-family="'CourierNewPSMT'" font-size="1.2" rotate="-14.616">e</tspan><tspan x="6.198" y="-0.766" fill="#FFFFFF" font-family="'CourierNewPSMT'" font-size="1.2" rotate="-16.879">l</tspan><tspan x="6.91" y="-0.982" fill="#FFFFFF" font-family="'CourierNewPSMT'" font-size="1.2" rotate="-19.255">e</tspan><tspan x="7.628" y="-1.236" fill="#FFFFFF" font-family="'CourierNewPSMT'" font-size="1.2" rotate="-21.682">c</tspan><tspan x="8.309" y="-1.502" fill="#FFFFFF" font-family="'CourierNewPSMT'" font-size="1.2" rotate="-24.165">t</tspan><tspan x="8.993" y="-1.813" fill="#FFFFFF" font-family="'CourierNewPSMT'" font-size="1.2" rotate="-26.693">e</tspan><tspan x="9.658" y="-2.149" fill="#FFFFFF" font-family="'CourierNewPSMT'" font-size="1.2" rotate="-29.262">d</tspan><tspan x="10.309" y="-2.514" fill="#FFFFFF" font-family="'Baskerville-Italic'" font-size="1.2" rotate="-31.09">,</tspan><tspan x="10.55" y="-2.66" fill="#FFFFFF" font-family="'Baskerville-Italic'" font-size="1.2" rotate="-32.127"> </tspan><tspan x="10.82" y="-2.83" fill="#FFFFFF" font-family="'CourierNewPSMT'" font-size="1.2" rotate="-34.003">h</tspan><tspan x="11.457" y="-3.259" fill="#FFFFFF" font-family="'CourierNewPSMT'" font-size="1.2" rotate="-36.589">o</tspan><tspan x="12.038" y="-3.688" fill="#FFFFFF" font-family="'CourierNewPSMT'" font-size="1.2" rotate="-39.172">v</tspan><tspan x="12.62" y="-4.163" fill="#FFFFFF" font-family="'CourierNewPSMT'" font-size="1.2" rotate="-41.668">e</tspan><tspan x="13.168" y="-4.657" fill="#FFFFFF" font-family="'CourierNewPSMT'" font-size="1.2" rotate="-43.701">r</tspan><tspan x="13.699" y="-5.171" fill="#FFFFFF" font-family="'CourierNewPSMT'" font-size="1.2" rotate="-45.23">i</tspan><tspan x="14.212" y="-5.689" fill="#FFFFFF" font-family="'CourierNewPSMT'" font-size="1.2" rotate="-46.45">n</tspan><tspan x="14.717" y="-6.221" fill="#FFFFFF" font-family="'CourierNewPSMT'" font-size="1.2" rotate="-47.468">g</tspan><tspan x="15.196" y="-6.741" fill="#FFFFFF" font-family="'Baskerville-Italic'" font-size="1.2" rotate="-48.095">,</tspan><tspan x="15.392" y="-6.962" fill="#FFFFFF" font-family="'Baskerville-Italic'" font-size="1.2" rotate="-48.436"> </tspan><tspan x="15.592" y="-7.185" fill="#FFFFFF" font-family="'CourierNewPSMT'" font-size="1.2" rotate="-48.996">e</tspan><tspan x="16.075" y="-7.741" fill="#FFFFFF" font-family="'CourierNewPSMT'" font-size="1.2" rotate="-49.721">d</tspan><tspan x="16.542" y="-8.292" fill="#FFFFFF" font-family="'CourierNewPSMT'" font-size="1.2" rotate="-50.371">i</tspan><tspan x="17.013" y="-8.862" fill="#FFFFFF" font-family="'CourierNewPSMT'" font-size="1.2" rotate="-50.962">t</tspan><tspan x="17.465" y="-9.42" fill="#FFFFFF" font-family="'CourierNewPSMT'" font-size="1.2" rotate="-51.511">i</tspan><tspan x="17.914" y="-9.982" fill="#FFFFFF" font-family="'CourierNewPSMT'" font-size="1.2" rotate="-52.026">n</tspan><tspan x="18.374" y="-10.574" fill="#FFFFFF" font-family="'CourierNewPSMT'" font-size="1.2" rotate="-52.512">g</tspan><tspan x="18.813" y="-11.15" fill="#FFFFFF" font-family="'Baskerville-Italic'" font-size="1.2" rotate="-52.834">,</tspan><tspan x="18.981" y="-11.371" fill="#FFFFFF" font-family="'Baskerville-Italic'" font-size="1.2" rotate="-53.015"> </tspan><tspan x="19.159" y="-11.605" fill="#FFFFFF" font-family="'Baskerville-Italic'" font-size="1.2" rotate="-53.374">a</tspan><tspan x="19.46" y="-12.007" fill="#FFFFFF" font-family="'Baskerville-Italic'" font-size="1.2" rotate="-53.84">n</tspan><tspan x="19.764" y="-12.424" fill="#FFFFFF" font-family="'Baskerville-Italic'" font-size="1.2" rotate="-54.075">d</tspan><tspan x="20.051" y="-12.822" fill="#FFFFFF" font-family="'Baskerville-Italic'" font-size="1.2" rotate="-54.03"> </tspan><tspan x="20.232" y="-13.072" fill="#FFFFFF" font-family="'Baskerville-Italic'" font-size="1.2" rotate="-53.735">a</tspan><tspan x="20.53" y="-13.478" fill="#FFFFFF" font-family="'Baskerville-Italic'" font-size="1.2" rotate="-53.412"> </tspan><tspan x="20.715" y="-13.73" fill="#FFFFFF" font-family="'Baskerville-Italic'" font-size="1.2" rotate="-52.972">m</tspan><tspan x="21.157" y="-14.314" fill="#FFFFFF" font-family="'Baskerville-Italic'" font-size="1.2" rotate="-52.501">i</tspan><tspan x="21.331" y="-14.54" fill="#FFFFFF" font-family="'Baskerville-Italic'" font-size="1.2" rotate="-52.232">l</tspan><tspan x="21.515" y="-14.78" fill="#FFFFFF" font-family="'Baskerville-Italic'" font-size="1.2" rotate="-51.96">l</tspan><tspan x="21.701" y="-15.015" fill="#FFFFFF" font-family="'Baskerville-Italic'" font-size="1.2" rotate="-51.677">i</tspan><tspan x="21.873" y="-15.234" fill="#FFFFFF" font-family="'Baskerville-Italic'" font-size="1.2" rotate="-51.312">o</tspan><tspan x="22.141" y="-15.569" fill="#FFFFFF" font-family="'Baskerville-Italic'" font-size="1.2" rotate="-50.814">n</tspan><tspan x="22.474" y="-15.977" fill="#FFFFFF" font-family="'Baskerville-Italic'" font-size="1.2" rotate="-50.367"> </tspan><tspan x="22.645" y="-16.185" fill="#FFFFFF" font-family="'Baskerville-Italic'" font-size="1.2" rotate="-49.942">o</tspan><tspan x="22.933" y="-16.526" fill="#FFFFFF" font-family="'Baskerville-Italic'" font-size="1.2" rotate="-49.5">t</tspan><tspan x="23.124" y="-16.752" fill="#FFFFFF" font-family="'Baskerville-Italic'" font-size="1.2" rotate="-48.999">h</tspan><tspan x="23.452" y="-17.128" fill="#FFFFFF" font-family="'Baskerville-Italic'" font-size="1.2" rotate="-48.417">e</tspan><tspan x="23.689" y="-17.394" fill="#FFFFFF" font-family="'Baskerville-Italic'" font-size="1.2" rotate="-47.906">r</tspan><tspan x="23.911" y="-17.641" fill="#FFFFFF" font-family="'Baskerville-Italic'" font-size="1.2" rotate="-47.364">s</tspan><tspan x="24.176" y="-17.927" fill="#FFFFFF" font-family="'Baskerville-Italic'" font-size="1.2" rotate="-46.842">.</tspan><tspan x="24.364" y="-18.129" fill="#FFFFFF" font-family="'Baskerville-Italic'" font-size="1.2" rotate="-46.371">.</tspan><tspan x="24.566" y="-18.342" fill="#FFFFFF" font-family="'Baskerville-Italic'" font-size="1.2" rotate="-45.878">.</tspan></text>
	<path display="none" d="M-680.246,305.792h2.387c0.652,4.12,2.203,7.465,4.65,10.035c2.448,2.57,5.222,3.855,8.323,3.855
		c2.121,0,5.222-0.489,9.302-1.469c3.794-0.938,7.119-1.407,9.975-1.407c5.792,0,11.076,2.203,15.85,6.609
		c4.773,4.405,7.506,9.913,8.2,16.522h-2.387c-0.694-4.773-2.479-8.344-5.354-10.709c-2.876-2.367-6.008-3.55-9.394-3.55
		c-2.489,0-5.549,0.388-9.179,1.163c-4.325,0.856-7.813,1.285-10.464,1.285c-4.406,0-8.506-1.592-12.3-4.773
		c-3.794-3.183-6.548-7.364-8.261-12.545c-2.041,5.385-4.926,9.628-8.659,12.729c-3.733,3.1-7.802,4.65-12.208,4.65
		c-2.489,0-5.916-0.449-10.281-1.346c-3.671-0.734-6.731-1.102-9.179-1.102c-7.75,0-12.81,4.732-15.176,14.197h-2.142
		c0.734-6.528,3.427-11.994,8.078-16.4s9.935-6.609,15.85-6.609c2.774,0,5.977,0.429,9.607,1.285c4.324,1.02,7.466,1.53,9.424,1.53
		c2.978,0,5.731-1.143,8.262-3.427C-682.796,314.032-681.103,310.523-680.246,305.792z"/>
	<text transform="matrix(1 0 0 1 -1638.9922 51.5059)" font-family="'MyriadPro-Regular'" font-size="72">UIManager</text>
	<text transform="matrix(1 0 0 1 -987.873 423.124)"><tspan x="0" y="0" fill="#BF0D00" font-family="'CourierNewPSMT'" font-size="0.177">&quot;&quot;</tspan><tspan x="0.212" y="0" fill="#FFFFFF" font-family="'CourierNewPSMT'" font-size="0.177">: [</tspan><tspan x="0" y="0.295" fill="#FFFFFF" font-family="'CourierNewPSMT'" font-size="0.177">    { </tspan><tspan x="0.637" y="0.295" fill="#FFFFFF" font-family="'HelveticaNeue-Bold'" font-size="0.2454">templated</tspan><tspan x="1.818" y="0.295" fill="#FFFFFF" font-family="'CourierNewPSMT'" font-size="0.177">: {</tspan><tspan x="0" y="0.507" fill="#FFFFFF" font-family="'CourierNewPSMT'" font-size="0.177">        templateSelector: &quot;#myTemplate&quot;</tspan><tspan x="0" y="0.72" fill="#FFFFFF" font-family="'CourierNewPSMT'" font-size="0.177">    } },</tspan><tspan x="0" y="1.014" fill="#FFFFFF" font-family="'CourierNewPSMT'" font-size="0.177">    { </tspan><tspan x="0.637" y="1.014" fill="#FFFFFF" font-family="'HelveticaNeue-Bold'" font-size="0.2454">hoverable</tspan><tspan x="1.791" y="1.014" fill="#FFFFFF" font-family="'CourierNewPSMT'" font-size="0.177">: {} },</tspan><tspan x="0" y="1.309" fill="#FFFFFF" font-family="'CourierNewPSMT'" font-size="0.177">    { </tspan><tspan x="0.637" y="1.309" fill="#FFFFFF" font-family="'HelveticaNeue-Bold'" font-size="0.2454">textValueEdit</tspan><tspan x="2.187" y="1.309" fill="#FFFFFF" font-family="'CourierNewPSMT'" font-size="0.177">: { attributeName: &quot;name&quot; },</tspan><tspan x="0" y="1.603" fill="#FFFFFF" font-family="'CourierNewPSMT'" font-size="0.177">    { </tspan><tspan x="0.637" y="1.603" fill="#FFFFFF" font-family="'HelveticaNeue-Bold'" font-size="0.2454">textValueEdit</tspan><tspan x="2.187" y="1.603" fill="#FFFFFF" font-family="'CourierNewPSMT'" font-size="0.177">: { attributeName: &quot;age&quot; }</tspan><tspan x="0" y="1.815" fill="#FFFFFF" font-family="'CourierNewPSMT'" font-size="0.177">],</tspan><tspan x="0" y="2.027" fill="#BF0D00" font-family="'CourierNewPSMT'" font-size="0.177">&quot;.bg&quot;</tspan><tspan x="0.531" y="2.027" fill="#FFFFFF" font-family="'CourierNewPSMT'" font-size="0.177">: [</tspan><tspan x="0" y="2.322" fill="#FFFFFF" font-family="'CourierNewPSMT'" font-size="0.177">    { </tspan><tspan x="0.637" y="2.322" fill="#FFFFFF" font-family="'HelveticaNeue-Bold'" font-size="0.2454">selectable</tspan><tspan x="1.836" y="2.322" fill="#FFFFFF" font-family="'CourierNewPSMT'" font-size="0.177">: {} }</tspan><tspan x="0" y="2.534" fill="#FFFFFF" font-family="'CourierNewPSMT'" font-size="0.177">],</tspan><tspan x="0" y="2.747" fill="#BF0D00" font-family="'CourierNewPSMT'" font-size="0.177">&quot;.commit-button&quot;</tspan><tspan x="1.699" y="2.747" fill="#FFFFFF" font-family="'CourierNewPSMT'" font-size="0.177">: [</tspan><tspan x="0" y="3.042" fill="#FFFFFF" font-family="'CourierNewPSMT'" font-size="0.177">    { </tspan><tspan x="0.637" y="3.042" fill="#FFFFFF" font-family="'HelveticaNeue-Bold'" font-size="0.2454">commitEdit</tspan><tspan x="1.98" y="3.042" fill="#FFFFFF" font-family="'CourierNewPSMT'" font-size="0.177">: {} }</tspan><tspan x="0" y="3.254" fill="#FFFFFF" font-family="'CourierNewPSMT'" font-size="0.177">],</tspan><tspan x="0" y="3.467" fill="#BF0D00" font-family="'CourierNewPSMT'" font-size="0.177">&quot;.cancel-button&quot;</tspan><tspan x="1.699" y="3.467" fill="#FFFFFF" font-family="'CourierNewPSMT'" font-size="0.177">: [</tspan><tspan x="0" y="3.761" fill="#FFFFFF" font-family="'CourierNewPSMT'" font-size="0.177">    { </tspan><tspan x="0.637" y="3.761" fill="#FFFFFF" font-family="'HelveticaNeue-Bold'" font-size="0.2454">cancelEdit</tspan><tspan x="1.868" y="3.761" fill="#FFFFFF" font-family="'CourierNewPSMT'" font-size="0.177">: {} }</tspan><tspan x="0" y="3.974" fill="#FFFFFF" font-family="'CourierNewPSMT'" font-size="0.177">]</tspan></text>
	<g>
		<g>
			
				<line fill="none" stroke="#000000" stroke-width="10" stroke-miterlimit="10" x1="-884.167" y1="438.5" x2="-878.167" y2="438.5"/>
			
				<line fill="none" stroke="#000000" stroke-width="10" stroke-miterlimit="10" stroke-dasharray="11.8519,11.8519" x1="-866.315" y1="438.5" x2="-777.426" y2="438.5"/>
			<line fill="none" stroke="#000000" stroke-width="10" stroke-miterlimit="10" x1="-771.5" y1="438.5" x2="-765.5" y2="438.5"/>
		</g>
	</g>
</g>
</svg>
